<mxfile host="app.diagrams.net" modified="2023-10-11T07:57:54.808Z" agent="Mozilla/5.0 (Windows NT 10.0; Win64; x64) AppleWebKit/537.36 (KHTML, like Gecko) Chrome/117.0.0.0 Safari/537.36" etag="EfU2VHmJwclms3Kmj4TS" version="22.0.4" type="github">
  <diagram name="Trang-1" id="b99IJg6aE5r9UIynJmgb">
    <mxGraphModel dx="2607" dy="1378" grid="1" gridSize="10" guides="1" tooltips="1" connect="1" arrows="1" fold="1" page="1" pageScale="1" pageWidth="827" pageHeight="1169" math="0" shadow="0">
      <root>
        <mxCell id="0" />
        <mxCell id="1" parent="0" />
        <mxCell id="jHfvoRSbPwIjODcUTpJH-3" value="" style="edgeStyle=orthogonalEdgeStyle;rounded=0;orthogonalLoop=1;jettySize=auto;html=1;" edge="1" parent="1" source="jHfvoRSbPwIjODcUTpJH-1" target="jHfvoRSbPwIjODcUTpJH-2">
          <mxGeometry relative="1" as="geometry">
            <Array as="points">
              <mxPoint x="560" y="650" />
              <mxPoint x="560" y="650" />
            </Array>
          </mxGeometry>
        </mxCell>
        <mxCell id="jHfvoRSbPwIjODcUTpJH-4" value="Login" style="edgeLabel;html=1;align=center;verticalAlign=middle;resizable=0;points=[];" vertex="1" connectable="0" parent="jHfvoRSbPwIjODcUTpJH-3">
          <mxGeometry x="-0.0824" y="-1" relative="1" as="geometry">
            <mxPoint as="offset" />
          </mxGeometry>
        </mxCell>
        <mxCell id="jHfvoRSbPwIjODcUTpJH-33" value="" style="edgeStyle=orthogonalEdgeStyle;rounded=0;orthogonalLoop=1;jettySize=auto;html=1;" edge="1" parent="1" source="jHfvoRSbPwIjODcUTpJH-1" target="jHfvoRSbPwIjODcUTpJH-32">
          <mxGeometry relative="1" as="geometry" />
        </mxCell>
        <mxCell id="jHfvoRSbPwIjODcUTpJH-34" value="Login" style="edgeLabel;html=1;align=center;verticalAlign=middle;resizable=0;points=[];" vertex="1" connectable="0" parent="jHfvoRSbPwIjODcUTpJH-33">
          <mxGeometry relative="1" as="geometry">
            <mxPoint as="offset" />
          </mxGeometry>
        </mxCell>
        <mxCell id="jHfvoRSbPwIjODcUTpJH-1" value="Actor" style="shape=umlActor;verticalLabelPosition=bottom;verticalAlign=top;html=1;outlineConnect=0;" vertex="1" parent="1">
          <mxGeometry x="500" y="620" width="30" height="60" as="geometry" />
        </mxCell>
        <mxCell id="jHfvoRSbPwIjODcUTpJH-49" value="" style="edgeStyle=orthogonalEdgeStyle;rounded=0;orthogonalLoop=1;jettySize=auto;html=1;entryX=0;entryY=0.5;entryDx=0;entryDy=0;" edge="1" parent="1" source="jHfvoRSbPwIjODcUTpJH-2" target="jHfvoRSbPwIjODcUTpJH-48">
          <mxGeometry relative="1" as="geometry" />
        </mxCell>
        <mxCell id="jHfvoRSbPwIjODcUTpJH-53" style="edgeStyle=orthogonalEdgeStyle;rounded=0;orthogonalLoop=1;jettySize=auto;html=1;entryX=0;entryY=0.5;entryDx=0;entryDy=0;" edge="1" parent="1" source="jHfvoRSbPwIjODcUTpJH-2" target="jHfvoRSbPwIjODcUTpJH-50">
          <mxGeometry relative="1" as="geometry" />
        </mxCell>
        <mxCell id="jHfvoRSbPwIjODcUTpJH-54" style="edgeStyle=orthogonalEdgeStyle;rounded=0;orthogonalLoop=1;jettySize=auto;html=1;entryX=0;entryY=0.5;entryDx=0;entryDy=0;" edge="1" parent="1" source="jHfvoRSbPwIjODcUTpJH-2" target="jHfvoRSbPwIjODcUTpJH-51">
          <mxGeometry relative="1" as="geometry" />
        </mxCell>
        <mxCell id="jHfvoRSbPwIjODcUTpJH-91" value="dashboard" style="edgeLabel;html=1;align=center;verticalAlign=middle;resizable=0;points=[];" vertex="1" connectable="0" parent="jHfvoRSbPwIjODcUTpJH-54">
          <mxGeometry x="-0.5891" relative="1" as="geometry">
            <mxPoint x="-8" as="offset" />
          </mxGeometry>
        </mxCell>
        <mxCell id="jHfvoRSbPwIjODcUTpJH-2" value="&lt;br&gt;&lt;br&gt;Role" style="ellipse;whiteSpace=wrap;html=1;verticalAlign=top;" vertex="1" parent="1">
          <mxGeometry x="640" y="610" width="80" height="80" as="geometry" />
        </mxCell>
        <mxCell id="jHfvoRSbPwIjODcUTpJH-5" value="user_name" style="whiteSpace=wrap;html=1;verticalAlign=top;" vertex="1" parent="1">
          <mxGeometry x="70" y="500" width="90" height="30" as="geometry" />
        </mxCell>
        <mxCell id="jHfvoRSbPwIjODcUTpJH-40" style="edgeStyle=orthogonalEdgeStyle;rounded=0;orthogonalLoop=1;jettySize=auto;html=1;entryX=0.5;entryY=0;entryDx=0;entryDy=0;" edge="1" parent="1" source="jHfvoRSbPwIjODcUTpJH-7" target="jHfvoRSbPwIjODcUTpJH-8">
          <mxGeometry relative="1" as="geometry" />
        </mxCell>
        <mxCell id="jHfvoRSbPwIjODcUTpJH-7" value="password" style="whiteSpace=wrap;html=1;verticalAlign=top;" vertex="1" parent="1">
          <mxGeometry x="70" y="555" width="90" height="30" as="geometry" />
        </mxCell>
        <mxCell id="jHfvoRSbPwIjODcUTpJH-8" value="confirm_password" style="whiteSpace=wrap;html=1;verticalAlign=top;" vertex="1" parent="1">
          <mxGeometry x="40" y="635" width="120" height="30" as="geometry" />
        </mxCell>
        <mxCell id="jHfvoRSbPwIjODcUTpJH-9" value="phone" style="whiteSpace=wrap;html=1;verticalAlign=top;" vertex="1" parent="1">
          <mxGeometry x="70" y="690" width="90" height="30" as="geometry" />
        </mxCell>
        <mxCell id="jHfvoRSbPwIjODcUTpJH-10" value="name" style="whiteSpace=wrap;html=1;verticalAlign=top;" vertex="1" parent="1">
          <mxGeometry x="70" y="350" width="90" height="30" as="geometry" />
        </mxCell>
        <mxCell id="jHfvoRSbPwIjODcUTpJH-23" style="edgeStyle=orthogonalEdgeStyle;rounded=0;orthogonalLoop=1;jettySize=auto;html=1;" edge="1" parent="1" source="jHfvoRSbPwIjODcUTpJH-11" target="jHfvoRSbPwIjODcUTpJH-12">
          <mxGeometry relative="1" as="geometry" />
        </mxCell>
        <mxCell id="jHfvoRSbPwIjODcUTpJH-11" value="mail" style="whiteSpace=wrap;html=1;verticalAlign=top;" vertex="1" parent="1">
          <mxGeometry x="70" y="810" width="90" height="30" as="geometry" />
        </mxCell>
        <mxCell id="jHfvoRSbPwIjODcUTpJH-47" style="edgeStyle=orthogonalEdgeStyle;rounded=0;orthogonalLoop=1;jettySize=auto;html=1;entryX=0.5;entryY=1;entryDx=0;entryDy=0;" edge="1" parent="1" source="jHfvoRSbPwIjODcUTpJH-12" target="jHfvoRSbPwIjODcUTpJH-2">
          <mxGeometry relative="1" as="geometry" />
        </mxCell>
        <mxCell id="jHfvoRSbPwIjODcUTpJH-12" value="code" style="whiteSpace=wrap;html=1;verticalAlign=top;" vertex="1" parent="1">
          <mxGeometry x="70" y="890" width="90" height="30" as="geometry" />
        </mxCell>
        <mxCell id="jHfvoRSbPwIjODcUTpJH-35" style="edgeStyle=orthogonalEdgeStyle;rounded=0;orthogonalLoop=1;jettySize=auto;html=1;entryX=1;entryY=0.5;entryDx=0;entryDy=0;" edge="1" parent="1" source="jHfvoRSbPwIjODcUTpJH-32" target="jHfvoRSbPwIjODcUTpJH-10">
          <mxGeometry relative="1" as="geometry" />
        </mxCell>
        <mxCell id="jHfvoRSbPwIjODcUTpJH-36" style="edgeStyle=orthogonalEdgeStyle;rounded=0;orthogonalLoop=1;jettySize=auto;html=1;entryX=1;entryY=0.5;entryDx=0;entryDy=0;" edge="1" parent="1" source="jHfvoRSbPwIjODcUTpJH-32" target="jHfvoRSbPwIjODcUTpJH-5">
          <mxGeometry relative="1" as="geometry" />
        </mxCell>
        <mxCell id="jHfvoRSbPwIjODcUTpJH-37" style="edgeStyle=orthogonalEdgeStyle;rounded=0;orthogonalLoop=1;jettySize=auto;html=1;entryX=1;entryY=0.5;entryDx=0;entryDy=0;" edge="1" parent="1" source="jHfvoRSbPwIjODcUTpJH-32" target="jHfvoRSbPwIjODcUTpJH-7">
          <mxGeometry relative="1" as="geometry" />
        </mxCell>
        <mxCell id="jHfvoRSbPwIjODcUTpJH-39" style="edgeStyle=orthogonalEdgeStyle;rounded=0;orthogonalLoop=1;jettySize=auto;html=1;entryX=1;entryY=0.5;entryDx=0;entryDy=0;" edge="1" parent="1" source="jHfvoRSbPwIjODcUTpJH-32" target="jHfvoRSbPwIjODcUTpJH-8">
          <mxGeometry relative="1" as="geometry">
            <Array as="points">
              <mxPoint x="175" y="650" />
            </Array>
          </mxGeometry>
        </mxCell>
        <mxCell id="jHfvoRSbPwIjODcUTpJH-41" style="edgeStyle=orthogonalEdgeStyle;rounded=0;orthogonalLoop=1;jettySize=auto;html=1;entryX=1;entryY=0.5;entryDx=0;entryDy=0;" edge="1" parent="1" source="jHfvoRSbPwIjODcUTpJH-32" target="jHfvoRSbPwIjODcUTpJH-9">
          <mxGeometry relative="1" as="geometry" />
        </mxCell>
        <mxCell id="jHfvoRSbPwIjODcUTpJH-42" style="edgeStyle=orthogonalEdgeStyle;rounded=0;orthogonalLoop=1;jettySize=auto;html=1;entryX=1;entryY=0.5;entryDx=0;entryDy=0;" edge="1" parent="1" source="jHfvoRSbPwIjODcUTpJH-32" target="jHfvoRSbPwIjODcUTpJH-11">
          <mxGeometry relative="1" as="geometry" />
        </mxCell>
        <mxCell id="jHfvoRSbPwIjODcUTpJH-43" value="Register" style="edgeLabel;html=1;align=center;verticalAlign=middle;resizable=0;points=[];" vertex="1" connectable="0" parent="jHfvoRSbPwIjODcUTpJH-42">
          <mxGeometry x="-0.6327" relative="1" as="geometry">
            <mxPoint x="15" as="offset" />
          </mxGeometry>
        </mxCell>
        <mxCell id="jHfvoRSbPwIjODcUTpJH-46" style="edgeStyle=orthogonalEdgeStyle;rounded=0;orthogonalLoop=1;jettySize=auto;html=1;entryX=1;entryY=0.5;entryDx=0;entryDy=0;" edge="1" parent="1" source="jHfvoRSbPwIjODcUTpJH-32" target="jHfvoRSbPwIjODcUTpJH-45">
          <mxGeometry relative="1" as="geometry" />
        </mxCell>
        <mxCell id="jHfvoRSbPwIjODcUTpJH-109" style="edgeStyle=orthogonalEdgeStyle;rounded=0;orthogonalLoop=1;jettySize=auto;html=1;entryX=1;entryY=0.5;entryDx=0;entryDy=0;" edge="1" parent="1" source="jHfvoRSbPwIjODcUTpJH-32" target="jHfvoRSbPwIjODcUTpJH-108">
          <mxGeometry relative="1" as="geometry" />
        </mxCell>
        <mxCell id="jHfvoRSbPwIjODcUTpJH-32" value="&lt;br&gt;Account Admin" style="ellipse;whiteSpace=wrap;html=1;verticalAlign=top;" vertex="1" parent="1">
          <mxGeometry x="290" y="610" width="80" height="80" as="geometry" />
        </mxCell>
        <mxCell id="jHfvoRSbPwIjODcUTpJH-45" value="role" style="whiteSpace=wrap;html=1;verticalAlign=top;" vertex="1" parent="1">
          <mxGeometry x="70" y="750" width="90" height="30" as="geometry" />
        </mxCell>
        <mxCell id="jHfvoRSbPwIjODcUTpJH-65" style="edgeStyle=orthogonalEdgeStyle;rounded=0;orthogonalLoop=1;jettySize=auto;html=1;entryX=0;entryY=0.5;entryDx=0;entryDy=0;" edge="1" parent="1" source="jHfvoRSbPwIjODcUTpJH-48" target="jHfvoRSbPwIjODcUTpJH-58">
          <mxGeometry relative="1" as="geometry" />
        </mxCell>
        <mxCell id="jHfvoRSbPwIjODcUTpJH-76" style="edgeStyle=orthogonalEdgeStyle;rounded=0;orthogonalLoop=1;jettySize=auto;html=1;entryX=0;entryY=0.5;entryDx=0;entryDy=0;" edge="1" parent="1" source="jHfvoRSbPwIjODcUTpJH-48" target="jHfvoRSbPwIjODcUTpJH-55">
          <mxGeometry relative="1" as="geometry" />
        </mxCell>
        <mxCell id="jHfvoRSbPwIjODcUTpJH-84" style="edgeStyle=orthogonalEdgeStyle;rounded=0;orthogonalLoop=1;jettySize=auto;html=1;entryX=0;entryY=0.5;entryDx=0;entryDy=0;" edge="1" parent="1" source="jHfvoRSbPwIjODcUTpJH-48" target="jHfvoRSbPwIjODcUTpJH-57">
          <mxGeometry relative="1" as="geometry" />
        </mxCell>
        <mxCell id="jHfvoRSbPwIjODcUTpJH-87" style="edgeStyle=orthogonalEdgeStyle;rounded=0;orthogonalLoop=1;jettySize=auto;html=1;entryX=0;entryY=0.5;entryDx=0;entryDy=0;" edge="1" parent="1" source="jHfvoRSbPwIjODcUTpJH-48" target="jHfvoRSbPwIjODcUTpJH-56">
          <mxGeometry relative="1" as="geometry" />
        </mxCell>
        <mxCell id="jHfvoRSbPwIjODcUTpJH-95" style="edgeStyle=orthogonalEdgeStyle;rounded=0;orthogonalLoop=1;jettySize=auto;html=1;entryX=0;entryY=0.5;entryDx=0;entryDy=0;" edge="1" parent="1" source="jHfvoRSbPwIjODcUTpJH-48" target="jHfvoRSbPwIjODcUTpJH-94">
          <mxGeometry relative="1" as="geometry">
            <Array as="points">
              <mxPoint x="1060" y="525" />
              <mxPoint x="1060" y="1115" />
            </Array>
          </mxGeometry>
        </mxCell>
        <mxCell id="jHfvoRSbPwIjODcUTpJH-48" value="admin" style="whiteSpace=wrap;html=1;verticalAlign=top;" vertex="1" parent="1">
          <mxGeometry x="890" y="510" width="80" height="30" as="geometry" />
        </mxCell>
        <mxCell id="jHfvoRSbPwIjODcUTpJH-66" style="edgeStyle=orthogonalEdgeStyle;rounded=0;orthogonalLoop=1;jettySize=auto;html=1;entryX=0;entryY=0.5;entryDx=0;entryDy=0;" edge="1" parent="1" source="jHfvoRSbPwIjODcUTpJH-50" target="jHfvoRSbPwIjODcUTpJH-58">
          <mxGeometry relative="1" as="geometry" />
        </mxCell>
        <mxCell id="jHfvoRSbPwIjODcUTpJH-77" style="edgeStyle=orthogonalEdgeStyle;rounded=0;orthogonalLoop=1;jettySize=auto;html=1;entryX=0;entryY=0.5;entryDx=0;entryDy=0;" edge="1" parent="1" source="jHfvoRSbPwIjODcUTpJH-50" target="jHfvoRSbPwIjODcUTpJH-55">
          <mxGeometry relative="1" as="geometry" />
        </mxCell>
        <mxCell id="jHfvoRSbPwIjODcUTpJH-88" value="admin/manager" style="edgeLabel;html=1;align=center;verticalAlign=middle;resizable=0;points=[];" vertex="1" connectable="0" parent="jHfvoRSbPwIjODcUTpJH-77">
          <mxGeometry x="0.5639" y="-1" relative="1" as="geometry">
            <mxPoint x="7" y="-1" as="offset" />
          </mxGeometry>
        </mxCell>
        <mxCell id="jHfvoRSbPwIjODcUTpJH-83" style="edgeStyle=orthogonalEdgeStyle;rounded=0;orthogonalLoop=1;jettySize=auto;html=1;entryX=0;entryY=0.5;entryDx=0;entryDy=0;" edge="1" parent="1" source="jHfvoRSbPwIjODcUTpJH-50" target="jHfvoRSbPwIjODcUTpJH-57">
          <mxGeometry relative="1" as="geometry" />
        </mxCell>
        <mxCell id="jHfvoRSbPwIjODcUTpJH-85" style="edgeStyle=orthogonalEdgeStyle;rounded=0;orthogonalLoop=1;jettySize=auto;html=1;entryX=0;entryY=0.5;entryDx=0;entryDy=0;" edge="1" parent="1" source="jHfvoRSbPwIjODcUTpJH-50" target="jHfvoRSbPwIjODcUTpJH-56">
          <mxGeometry relative="1" as="geometry" />
        </mxCell>
        <mxCell id="jHfvoRSbPwIjODcUTpJH-97" style="edgeStyle=orthogonalEdgeStyle;rounded=0;orthogonalLoop=1;jettySize=auto;html=1;entryX=0;entryY=0.5;entryDx=0;entryDy=0;" edge="1" parent="1" source="jHfvoRSbPwIjODcUTpJH-50" target="jHfvoRSbPwIjODcUTpJH-94">
          <mxGeometry relative="1" as="geometry">
            <Array as="points">
              <mxPoint x="1060" y="650" />
              <mxPoint x="1060" y="1115" />
            </Array>
          </mxGeometry>
        </mxCell>
        <mxCell id="jHfvoRSbPwIjODcUTpJH-50" value="manager" style="whiteSpace=wrap;html=1;verticalAlign=top;" vertex="1" parent="1">
          <mxGeometry x="890" y="635" width="80" height="30" as="geometry" />
        </mxCell>
        <mxCell id="jHfvoRSbPwIjODcUTpJH-71" style="edgeStyle=orthogonalEdgeStyle;rounded=0;orthogonalLoop=1;jettySize=auto;html=1;entryX=0;entryY=0.5;entryDx=0;entryDy=0;" edge="1" parent="1" source="jHfvoRSbPwIjODcUTpJH-51" target="jHfvoRSbPwIjODcUTpJH-58">
          <mxGeometry relative="1" as="geometry">
            <Array as="points">
              <mxPoint x="1060" y="745" />
              <mxPoint x="1060" y="495" />
            </Array>
          </mxGeometry>
        </mxCell>
        <mxCell id="jHfvoRSbPwIjODcUTpJH-82" style="edgeStyle=orthogonalEdgeStyle;rounded=0;orthogonalLoop=1;jettySize=auto;html=1;entryX=0;entryY=0.5;entryDx=0;entryDy=0;" edge="1" parent="1" source="jHfvoRSbPwIjODcUTpJH-51" target="jHfvoRSbPwIjODcUTpJH-57">
          <mxGeometry relative="1" as="geometry" />
        </mxCell>
        <mxCell id="jHfvoRSbPwIjODcUTpJH-90" value="all_role" style="edgeLabel;html=1;align=center;verticalAlign=middle;resizable=0;points=[];" vertex="1" connectable="0" parent="jHfvoRSbPwIjODcUTpJH-82">
          <mxGeometry x="0.4833" relative="1" as="geometry">
            <mxPoint as="offset" />
          </mxGeometry>
        </mxCell>
        <mxCell id="jHfvoRSbPwIjODcUTpJH-86" style="edgeStyle=orthogonalEdgeStyle;rounded=0;orthogonalLoop=1;jettySize=auto;html=1;entryX=0;entryY=0.5;entryDx=0;entryDy=0;" edge="1" parent="1" source="jHfvoRSbPwIjODcUTpJH-51" target="jHfvoRSbPwIjODcUTpJH-56">
          <mxGeometry relative="1" as="geometry" />
        </mxCell>
        <mxCell id="jHfvoRSbPwIjODcUTpJH-89" value="all_role" style="edgeLabel;html=1;align=center;verticalAlign=middle;resizable=0;points=[];" vertex="1" connectable="0" parent="jHfvoRSbPwIjODcUTpJH-86">
          <mxGeometry x="0.607" y="1" relative="1" as="geometry">
            <mxPoint as="offset" />
          </mxGeometry>
        </mxCell>
        <mxCell id="jHfvoRSbPwIjODcUTpJH-96" style="edgeStyle=orthogonalEdgeStyle;rounded=0;orthogonalLoop=1;jettySize=auto;html=1;entryX=0;entryY=0.5;entryDx=0;entryDy=0;" edge="1" parent="1" source="jHfvoRSbPwIjODcUTpJH-51" target="jHfvoRSbPwIjODcUTpJH-94">
          <mxGeometry relative="1" as="geometry">
            <Array as="points">
              <mxPoint x="1060" y="745" />
              <mxPoint x="1060" y="1115" />
            </Array>
          </mxGeometry>
        </mxCell>
        <mxCell id="jHfvoRSbPwIjODcUTpJH-51" value="employee" style="whiteSpace=wrap;html=1;verticalAlign=top;" vertex="1" parent="1">
          <mxGeometry x="890" y="730" width="80" height="30" as="geometry" />
        </mxCell>
        <mxCell id="jHfvoRSbPwIjODcUTpJH-55" value="revenues" style="whiteSpace=wrap;html=1;verticalAlign=top;" vertex="1" parent="1">
          <mxGeometry x="1220" y="570" width="80" height="30" as="geometry" />
        </mxCell>
        <mxCell id="jHfvoRSbPwIjODcUTpJH-140" value="" style="edgeStyle=orthogonalEdgeStyle;rounded=0;orthogonalLoop=1;jettySize=auto;html=1;entryX=0;entryY=0.5;entryDx=0;entryDy=0;" edge="1" parent="1" source="jHfvoRSbPwIjODcUTpJH-56" target="jHfvoRSbPwIjODcUTpJH-139">
          <mxGeometry relative="1" as="geometry" />
        </mxCell>
        <mxCell id="jHfvoRSbPwIjODcUTpJH-56" value="cart" style="whiteSpace=wrap;html=1;verticalAlign=top;" vertex="1" parent="1">
          <mxGeometry x="1220" y="665" width="80" height="30" as="geometry" />
        </mxCell>
        <mxCell id="jHfvoRSbPwIjODcUTpJH-131" style="edgeStyle=orthogonalEdgeStyle;rounded=0;orthogonalLoop=1;jettySize=auto;html=1;entryX=0.5;entryY=0;entryDx=0;entryDy=0;" edge="1" parent="1" source="jHfvoRSbPwIjODcUTpJH-57" target="jHfvoRSbPwIjODcUTpJH-121">
          <mxGeometry relative="1" as="geometry" />
        </mxCell>
        <mxCell id="jHfvoRSbPwIjODcUTpJH-132" style="edgeStyle=orthogonalEdgeStyle;rounded=0;orthogonalLoop=1;jettySize=auto;html=1;entryX=0.5;entryY=0;entryDx=0;entryDy=0;" edge="1" parent="1" source="jHfvoRSbPwIjODcUTpJH-57" target="jHfvoRSbPwIjODcUTpJH-125">
          <mxGeometry relative="1" as="geometry" />
        </mxCell>
        <mxCell id="jHfvoRSbPwIjODcUTpJH-133" style="edgeStyle=orthogonalEdgeStyle;rounded=0;orthogonalLoop=1;jettySize=auto;html=1;entryX=0.5;entryY=0;entryDx=0;entryDy=0;" edge="1" parent="1" source="jHfvoRSbPwIjODcUTpJH-57" target="jHfvoRSbPwIjODcUTpJH-122">
          <mxGeometry relative="1" as="geometry" />
        </mxCell>
        <mxCell id="jHfvoRSbPwIjODcUTpJH-134" style="edgeStyle=orthogonalEdgeStyle;rounded=0;orthogonalLoop=1;jettySize=auto;html=1;entryX=0.5;entryY=0;entryDx=0;entryDy=0;" edge="1" parent="1" source="jHfvoRSbPwIjODcUTpJH-57" target="jHfvoRSbPwIjODcUTpJH-123">
          <mxGeometry relative="1" as="geometry" />
        </mxCell>
        <mxCell id="jHfvoRSbPwIjODcUTpJH-135" style="edgeStyle=orthogonalEdgeStyle;rounded=0;orthogonalLoop=1;jettySize=auto;html=1;entryX=0.5;entryY=0;entryDx=0;entryDy=0;" edge="1" parent="1" source="jHfvoRSbPwIjODcUTpJH-57" target="jHfvoRSbPwIjODcUTpJH-127">
          <mxGeometry relative="1" as="geometry" />
        </mxCell>
        <mxCell id="jHfvoRSbPwIjODcUTpJH-136" style="edgeStyle=orthogonalEdgeStyle;rounded=0;orthogonalLoop=1;jettySize=auto;html=1;entryX=0.5;entryY=0;entryDx=0;entryDy=0;" edge="1" parent="1" source="jHfvoRSbPwIjODcUTpJH-57" target="jHfvoRSbPwIjODcUTpJH-128">
          <mxGeometry relative="1" as="geometry" />
        </mxCell>
        <mxCell id="jHfvoRSbPwIjODcUTpJH-138" style="edgeStyle=orthogonalEdgeStyle;rounded=0;orthogonalLoop=1;jettySize=auto;html=1;entryX=0.5;entryY=0;entryDx=0;entryDy=0;" edge="1" parent="1" source="jHfvoRSbPwIjODcUTpJH-57" target="jHfvoRSbPwIjODcUTpJH-119">
          <mxGeometry relative="1" as="geometry">
            <Array as="points">
              <mxPoint x="1140" y="780" />
            </Array>
          </mxGeometry>
        </mxCell>
        <mxCell id="jHfvoRSbPwIjODcUTpJH-57" value="history" style="whiteSpace=wrap;html=1;verticalAlign=top;" vertex="1" parent="1">
          <mxGeometry x="1220" y="750" width="80" height="30" as="geometry" />
        </mxCell>
        <mxCell id="jHfvoRSbPwIjODcUTpJH-60" value="" style="edgeStyle=orthogonalEdgeStyle;rounded=0;orthogonalLoop=1;jettySize=auto;html=1;entryX=0;entryY=0.5;entryDx=0;entryDy=0;" edge="1" parent="1" source="jHfvoRSbPwIjODcUTpJH-58" target="jHfvoRSbPwIjODcUTpJH-59">
          <mxGeometry relative="1" as="geometry" />
        </mxCell>
        <mxCell id="jHfvoRSbPwIjODcUTpJH-73" value="admin/manager" style="edgeLabel;html=1;align=center;verticalAlign=middle;resizable=0;points=[];" vertex="1" connectable="0" parent="jHfvoRSbPwIjODcUTpJH-60">
          <mxGeometry x="0.6296" y="1" relative="1" as="geometry">
            <mxPoint y="1" as="offset" />
          </mxGeometry>
        </mxCell>
        <mxCell id="jHfvoRSbPwIjODcUTpJH-63" style="edgeStyle=orthogonalEdgeStyle;rounded=0;orthogonalLoop=1;jettySize=auto;html=1;entryX=0;entryY=0.5;entryDx=0;entryDy=0;" edge="1" parent="1" source="jHfvoRSbPwIjODcUTpJH-58" target="jHfvoRSbPwIjODcUTpJH-61">
          <mxGeometry relative="1" as="geometry" />
        </mxCell>
        <mxCell id="jHfvoRSbPwIjODcUTpJH-74" value="admin/manager" style="edgeLabel;html=1;align=center;verticalAlign=middle;resizable=0;points=[];" vertex="1" connectable="0" parent="jHfvoRSbPwIjODcUTpJH-63">
          <mxGeometry x="0.4519" y="2" relative="1" as="geometry">
            <mxPoint x="14" y="2" as="offset" />
          </mxGeometry>
        </mxCell>
        <mxCell id="jHfvoRSbPwIjODcUTpJH-64" style="edgeStyle=orthogonalEdgeStyle;rounded=0;orthogonalLoop=1;jettySize=auto;html=1;entryX=0;entryY=0.5;entryDx=0;entryDy=0;" edge="1" parent="1" source="jHfvoRSbPwIjODcUTpJH-58" target="jHfvoRSbPwIjODcUTpJH-62">
          <mxGeometry relative="1" as="geometry" />
        </mxCell>
        <mxCell id="jHfvoRSbPwIjODcUTpJH-75" value="admin/manager" style="edgeLabel;html=1;align=center;verticalAlign=middle;resizable=0;points=[];" vertex="1" connectable="0" parent="jHfvoRSbPwIjODcUTpJH-64">
          <mxGeometry x="0.5368" relative="1" as="geometry">
            <mxPoint as="offset" />
          </mxGeometry>
        </mxCell>
        <mxCell id="jHfvoRSbPwIjODcUTpJH-70" style="edgeStyle=orthogonalEdgeStyle;rounded=0;orthogonalLoop=1;jettySize=auto;html=1;entryX=0;entryY=0.25;entryDx=0;entryDy=0;" edge="1" parent="1" source="jHfvoRSbPwIjODcUTpJH-58" target="jHfvoRSbPwIjODcUTpJH-67">
          <mxGeometry relative="1" as="geometry" />
        </mxCell>
        <mxCell id="jHfvoRSbPwIjODcUTpJH-72" value="all_role" style="edgeLabel;html=1;align=center;verticalAlign=middle;resizable=0;points=[];" vertex="1" connectable="0" parent="jHfvoRSbPwIjODcUTpJH-70">
          <mxGeometry x="0.7189" y="3" relative="1" as="geometry">
            <mxPoint x="1" y="1" as="offset" />
          </mxGeometry>
        </mxCell>
        <mxCell id="jHfvoRSbPwIjODcUTpJH-58" value="item" style="whiteSpace=wrap;html=1;verticalAlign=top;" vertex="1" parent="1">
          <mxGeometry x="1100" y="480" width="80" height="30" as="geometry" />
        </mxCell>
        <mxCell id="jHfvoRSbPwIjODcUTpJH-59" value="add_item" style="whiteSpace=wrap;html=1;verticalAlign=top;" vertex="1" parent="1">
          <mxGeometry x="1420" y="390" width="80" height="30" as="geometry" />
        </mxCell>
        <mxCell id="jHfvoRSbPwIjODcUTpJH-61" value="update_item" style="whiteSpace=wrap;html=1;verticalAlign=top;" vertex="1" parent="1">
          <mxGeometry x="1420" y="450" width="80" height="30" as="geometry" />
        </mxCell>
        <mxCell id="jHfvoRSbPwIjODcUTpJH-62" value="remove_item" style="whiteSpace=wrap;html=1;verticalAlign=top;" vertex="1" parent="1">
          <mxGeometry x="1420" y="525" width="80" height="30" as="geometry" />
        </mxCell>
        <mxCell id="jHfvoRSbPwIjODcUTpJH-67" value="view_item" style="whiteSpace=wrap;html=1;verticalAlign=top;" vertex="1" parent="1">
          <mxGeometry x="1420" y="330" width="80" height="30" as="geometry" />
        </mxCell>
        <mxCell id="jHfvoRSbPwIjODcUTpJH-100" style="edgeStyle=orthogonalEdgeStyle;rounded=0;orthogonalLoop=1;jettySize=auto;html=1;entryX=0;entryY=0.5;entryDx=0;entryDy=0;" edge="1" parent="1" source="jHfvoRSbPwIjODcUTpJH-94" target="jHfvoRSbPwIjODcUTpJH-99">
          <mxGeometry relative="1" as="geometry" />
        </mxCell>
        <mxCell id="jHfvoRSbPwIjODcUTpJH-101" value="admin/manager" style="edgeLabel;html=1;align=center;verticalAlign=middle;resizable=0;points=[];" vertex="1" connectable="0" parent="jHfvoRSbPwIjODcUTpJH-100">
          <mxGeometry x="-0.1429" y="-1" relative="1" as="geometry">
            <mxPoint y="-1" as="offset" />
          </mxGeometry>
        </mxCell>
        <mxCell id="jHfvoRSbPwIjODcUTpJH-103" style="edgeStyle=orthogonalEdgeStyle;rounded=0;orthogonalLoop=1;jettySize=auto;html=1;entryX=0;entryY=0.5;entryDx=0;entryDy=0;" edge="1" parent="1" source="jHfvoRSbPwIjODcUTpJH-94" target="jHfvoRSbPwIjODcUTpJH-98">
          <mxGeometry relative="1" as="geometry" />
        </mxCell>
        <mxCell id="jHfvoRSbPwIjODcUTpJH-94" value="settings" style="whiteSpace=wrap;html=1;verticalAlign=top;" vertex="1" parent="1">
          <mxGeometry x="1130" y="1100" width="80" height="30" as="geometry" />
        </mxCell>
        <mxCell id="jHfvoRSbPwIjODcUTpJH-106" value="" style="edgeStyle=orthogonalEdgeStyle;rounded=0;orthogonalLoop=1;jettySize=auto;html=1;entryX=0;entryY=0.5;entryDx=0;entryDy=0;" edge="1" parent="1" source="jHfvoRSbPwIjODcUTpJH-98" target="jHfvoRSbPwIjODcUTpJH-105">
          <mxGeometry relative="1" as="geometry" />
        </mxCell>
        <mxCell id="jHfvoRSbPwIjODcUTpJH-114" style="edgeStyle=orthogonalEdgeStyle;rounded=0;orthogonalLoop=1;jettySize=auto;html=1;entryX=0;entryY=0.5;entryDx=0;entryDy=0;" edge="1" parent="1" source="jHfvoRSbPwIjODcUTpJH-98" target="jHfvoRSbPwIjODcUTpJH-107">
          <mxGeometry relative="1" as="geometry" />
        </mxCell>
        <mxCell id="jHfvoRSbPwIjODcUTpJH-115" style="edgeStyle=orthogonalEdgeStyle;rounded=0;orthogonalLoop=1;jettySize=auto;html=1;entryX=0;entryY=0.5;entryDx=0;entryDy=0;" edge="1" parent="1" source="jHfvoRSbPwIjODcUTpJH-98" target="jHfvoRSbPwIjODcUTpJH-110">
          <mxGeometry relative="1" as="geometry" />
        </mxCell>
        <mxCell id="jHfvoRSbPwIjODcUTpJH-117" style="edgeStyle=orthogonalEdgeStyle;rounded=0;orthogonalLoop=1;jettySize=auto;html=1;" edge="1" parent="1" source="jHfvoRSbPwIjODcUTpJH-98" target="jHfvoRSbPwIjODcUTpJH-116">
          <mxGeometry relative="1" as="geometry" />
        </mxCell>
        <mxCell id="jHfvoRSbPwIjODcUTpJH-118" value="admin/manager" style="edgeLabel;html=1;align=center;verticalAlign=middle;resizable=0;points=[];" vertex="1" connectable="0" parent="jHfvoRSbPwIjODcUTpJH-117">
          <mxGeometry x="-0.1214" y="-1" relative="1" as="geometry">
            <mxPoint x="8" y="-1" as="offset" />
          </mxGeometry>
        </mxCell>
        <mxCell id="jHfvoRSbPwIjODcUTpJH-98" value="update_account" style="whiteSpace=wrap;html=1;verticalAlign=top;" vertex="1" parent="1">
          <mxGeometry x="1550" y="1050" width="109" height="30" as="geometry" />
        </mxCell>
        <mxCell id="jHfvoRSbPwIjODcUTpJH-102" style="edgeStyle=orthogonalEdgeStyle;rounded=0;orthogonalLoop=1;jettySize=auto;html=1;entryX=0.5;entryY=1;entryDx=0;entryDy=0;exitX=0.5;exitY=1;exitDx=0;exitDy=0;" edge="1" parent="1" source="jHfvoRSbPwIjODcUTpJH-99" target="jHfvoRSbPwIjODcUTpJH-51">
          <mxGeometry relative="1" as="geometry">
            <mxPoint x="1325" y="1035.0000000000002" as="sourcePoint" />
            <mxPoint x="975" y="810" as="targetPoint" />
            <Array as="points">
              <mxPoint x="1964" y="1150" />
              <mxPoint x="930" y="1150" />
            </Array>
          </mxGeometry>
        </mxCell>
        <mxCell id="jHfvoRSbPwIjODcUTpJH-99" value="remove_account" style="whiteSpace=wrap;html=1;verticalAlign=top;" vertex="1" parent="1">
          <mxGeometry x="1910" y="1100" width="109" height="30" as="geometry" />
        </mxCell>
        <mxCell id="jHfvoRSbPwIjODcUTpJH-105" value="name" style="whiteSpace=wrap;html=1;verticalAlign=top;" vertex="1" parent="1">
          <mxGeometry x="1710" y="910" width="109" height="30" as="geometry" />
        </mxCell>
        <mxCell id="jHfvoRSbPwIjODcUTpJH-107" value="phone" style="whiteSpace=wrap;html=1;verticalAlign=top;" vertex="1" parent="1">
          <mxGeometry x="1710" y="950" width="109" height="30" as="geometry" />
        </mxCell>
        <mxCell id="jHfvoRSbPwIjODcUTpJH-108" value="address" style="whiteSpace=wrap;html=1;verticalAlign=top;" vertex="1" parent="1">
          <mxGeometry x="70" y="410" width="90" height="30" as="geometry" />
        </mxCell>
        <mxCell id="jHfvoRSbPwIjODcUTpJH-112" value="" style="edgeStyle=orthogonalEdgeStyle;rounded=0;orthogonalLoop=1;jettySize=auto;html=1;" edge="1" parent="1" source="jHfvoRSbPwIjODcUTpJH-110" target="jHfvoRSbPwIjODcUTpJH-111">
          <mxGeometry relative="1" as="geometry" />
        </mxCell>
        <mxCell id="jHfvoRSbPwIjODcUTpJH-113" value="code" style="edgeLabel;html=1;align=center;verticalAlign=middle;resizable=0;points=[];" vertex="1" connectable="0" parent="jHfvoRSbPwIjODcUTpJH-112">
          <mxGeometry x="-0.2441" relative="1" as="geometry">
            <mxPoint as="offset" />
          </mxGeometry>
        </mxCell>
        <mxCell id="jHfvoRSbPwIjODcUTpJH-110" value="password" style="whiteSpace=wrap;html=1;verticalAlign=top;" vertex="1" parent="1">
          <mxGeometry x="1710" y="990" width="109" height="30" as="geometry" />
        </mxCell>
        <mxCell id="jHfvoRSbPwIjODcUTpJH-111" value="new_password" style="whiteSpace=wrap;html=1;verticalAlign=top;" vertex="1" parent="1">
          <mxGeometry x="1930" y="990" width="109" height="30" as="geometry" />
        </mxCell>
        <mxCell id="jHfvoRSbPwIjODcUTpJH-116" value="role" style="whiteSpace=wrap;html=1;verticalAlign=top;" vertex="1" parent="1">
          <mxGeometry x="1850" y="1050" width="109" height="30" as="geometry" />
        </mxCell>
        <mxCell id="jHfvoRSbPwIjODcUTpJH-119" value="id" style="whiteSpace=wrap;html=1;verticalAlign=top;" vertex="1" parent="1">
          <mxGeometry x="1100" y="860" width="80" height="30" as="geometry" />
        </mxCell>
        <mxCell id="jHfvoRSbPwIjODcUTpJH-121" value="name" style="whiteSpace=wrap;html=1;verticalAlign=top;" vertex="1" parent="1">
          <mxGeometry x="1220" y="860" width="80" height="30" as="geometry" />
        </mxCell>
        <mxCell id="jHfvoRSbPwIjODcUTpJH-122" value="amount" style="whiteSpace=wrap;html=1;verticalAlign=top;" vertex="1" parent="1">
          <mxGeometry x="1470" y="860" width="80" height="30" as="geometry" />
        </mxCell>
        <mxCell id="jHfvoRSbPwIjODcUTpJH-123" value="total" style="whiteSpace=wrap;html=1;verticalAlign=top;" vertex="1" parent="1">
          <mxGeometry x="1574" y="860" width="80" height="30" as="geometry" />
        </mxCell>
        <mxCell id="jHfvoRSbPwIjODcUTpJH-125" value="price" style="whiteSpace=wrap;html=1;verticalAlign=top;" vertex="1" parent="1">
          <mxGeometry x="1340" y="860" width="80" height="30" as="geometry" />
        </mxCell>
        <mxCell id="jHfvoRSbPwIjODcUTpJH-127" value="date" style="whiteSpace=wrap;html=1;verticalAlign=top;" vertex="1" parent="1">
          <mxGeometry x="1680" y="860" width="80" height="30" as="geometry" />
        </mxCell>
        <mxCell id="jHfvoRSbPwIjODcUTpJH-128" value="user_email" style="whiteSpace=wrap;html=1;verticalAlign=top;" vertex="1" parent="1">
          <mxGeometry x="1790" y="860" width="80" height="30" as="geometry" />
        </mxCell>
        <mxCell id="jHfvoRSbPwIjODcUTpJH-142" value="" style="edgeStyle=orthogonalEdgeStyle;rounded=0;orthogonalLoop=1;jettySize=auto;html=1;entryX=0;entryY=0.5;entryDx=0;entryDy=0;" edge="1" parent="1" source="jHfvoRSbPwIjODcUTpJH-139" target="jHfvoRSbPwIjODcUTpJH-141">
          <mxGeometry relative="1" as="geometry" />
        </mxCell>
        <mxCell id="jHfvoRSbPwIjODcUTpJH-148" style="edgeStyle=orthogonalEdgeStyle;rounded=0;orthogonalLoop=1;jettySize=auto;html=1;entryX=0;entryY=0.5;entryDx=0;entryDy=0;" edge="1" parent="1" source="jHfvoRSbPwIjODcUTpJH-139" target="jHfvoRSbPwIjODcUTpJH-144">
          <mxGeometry relative="1" as="geometry" />
        </mxCell>
        <mxCell id="jHfvoRSbPwIjODcUTpJH-149" style="edgeStyle=orthogonalEdgeStyle;rounded=0;orthogonalLoop=1;jettySize=auto;html=1;entryX=0;entryY=0.5;entryDx=0;entryDy=0;" edge="1" parent="1" source="jHfvoRSbPwIjODcUTpJH-139" target="jHfvoRSbPwIjODcUTpJH-145">
          <mxGeometry relative="1" as="geometry" />
        </mxCell>
        <mxCell id="jHfvoRSbPwIjODcUTpJH-150" style="edgeStyle=orthogonalEdgeStyle;rounded=0;orthogonalLoop=1;jettySize=auto;html=1;entryX=0;entryY=0.5;entryDx=0;entryDy=0;" edge="1" parent="1" source="jHfvoRSbPwIjODcUTpJH-139" target="jHfvoRSbPwIjODcUTpJH-146">
          <mxGeometry relative="1" as="geometry" />
        </mxCell>
        <mxCell id="jHfvoRSbPwIjODcUTpJH-139" value="status" style="whiteSpace=wrap;html=1;verticalAlign=top;" vertex="1" parent="1">
          <mxGeometry x="1380" y="665" width="80" height="30" as="geometry" />
        </mxCell>
        <mxCell id="jHfvoRSbPwIjODcUTpJH-160" style="edgeStyle=orthogonalEdgeStyle;rounded=0;orthogonalLoop=1;jettySize=auto;html=1;entryX=0;entryY=0.5;entryDx=0;entryDy=0;" edge="1" parent="1" source="jHfvoRSbPwIjODcUTpJH-141" target="jHfvoRSbPwIjODcUTpJH-159">
          <mxGeometry relative="1" as="geometry" />
        </mxCell>
        <mxCell id="jHfvoRSbPwIjODcUTpJH-141" value="process" style="whiteSpace=wrap;html=1;verticalAlign=top;" vertex="1" parent="1">
          <mxGeometry x="1540" y="555" width="80" height="30" as="geometry" />
        </mxCell>
        <mxCell id="jHfvoRSbPwIjODcUTpJH-161" style="edgeStyle=orthogonalEdgeStyle;rounded=0;orthogonalLoop=1;jettySize=auto;html=1;entryX=0;entryY=0.5;entryDx=0;entryDy=0;" edge="1" parent="1" source="jHfvoRSbPwIjODcUTpJH-144" target="jHfvoRSbPwIjODcUTpJH-159">
          <mxGeometry relative="1" as="geometry" />
        </mxCell>
        <mxCell id="jHfvoRSbPwIjODcUTpJH-144" value="delivery" style="whiteSpace=wrap;html=1;verticalAlign=top;" vertex="1" parent="1">
          <mxGeometry x="1540" y="600" width="80" height="30" as="geometry" />
        </mxCell>
        <mxCell id="jHfvoRSbPwIjODcUTpJH-162" style="edgeStyle=orthogonalEdgeStyle;rounded=0;orthogonalLoop=1;jettySize=auto;html=1;entryX=0;entryY=0.5;entryDx=0;entryDy=0;" edge="1" parent="1" source="jHfvoRSbPwIjODcUTpJH-145" target="jHfvoRSbPwIjODcUTpJH-159">
          <mxGeometry relative="1" as="geometry" />
        </mxCell>
        <mxCell id="jHfvoRSbPwIjODcUTpJH-145" value="refund" style="whiteSpace=wrap;html=1;verticalAlign=top;" vertex="1" parent="1">
          <mxGeometry x="1540" y="650" width="80" height="30" as="geometry" />
        </mxCell>
        <mxCell id="jHfvoRSbPwIjODcUTpJH-163" style="edgeStyle=orthogonalEdgeStyle;rounded=0;orthogonalLoop=1;jettySize=auto;html=1;entryX=0;entryY=0.5;entryDx=0;entryDy=0;" edge="1" parent="1" source="jHfvoRSbPwIjODcUTpJH-146" target="jHfvoRSbPwIjODcUTpJH-159">
          <mxGeometry relative="1" as="geometry" />
        </mxCell>
        <mxCell id="jHfvoRSbPwIjODcUTpJH-146" value="complete" style="whiteSpace=wrap;html=1;verticalAlign=top;" vertex="1" parent="1">
          <mxGeometry x="1540" y="700" width="80" height="30" as="geometry" />
        </mxCell>
        <mxCell id="jHfvoRSbPwIjODcUTpJH-151" value="location" style="whiteSpace=wrap;html=1;verticalAlign=top;" vertex="1" parent="1">
          <mxGeometry x="1850" y="420" width="80" height="30" as="geometry" />
        </mxCell>
        <mxCell id="jHfvoRSbPwIjODcUTpJH-153" value="id_item" style="whiteSpace=wrap;html=1;verticalAlign=top;" vertex="1" parent="1">
          <mxGeometry x="1850" y="470" width="80" height="30" as="geometry" />
        </mxCell>
        <mxCell id="jHfvoRSbPwIjODcUTpJH-154" value="name" style="whiteSpace=wrap;html=1;verticalAlign=top;" vertex="1" parent="1">
          <mxGeometry x="1850" y="520" width="80" height="30" as="geometry" />
        </mxCell>
        <mxCell id="jHfvoRSbPwIjODcUTpJH-155" value="amount" style="whiteSpace=wrap;html=1;verticalAlign=top;" vertex="1" parent="1">
          <mxGeometry x="1850" y="620" width="80" height="30" as="geometry" />
        </mxCell>
        <mxCell id="jHfvoRSbPwIjODcUTpJH-157" value="price" style="whiteSpace=wrap;html=1;verticalAlign=top;" vertex="1" parent="1">
          <mxGeometry x="1850" y="570" width="80" height="30" as="geometry" />
        </mxCell>
        <mxCell id="jHfvoRSbPwIjODcUTpJH-158" value="total" style="whiteSpace=wrap;html=1;verticalAlign=top;" vertex="1" parent="1">
          <mxGeometry x="1850" y="670" width="80" height="30" as="geometry" />
        </mxCell>
        <mxCell id="jHfvoRSbPwIjODcUTpJH-164" style="edgeStyle=orthogonalEdgeStyle;rounded=0;orthogonalLoop=1;jettySize=auto;html=1;entryX=0;entryY=0.5;entryDx=0;entryDy=0;" edge="1" parent="1" source="jHfvoRSbPwIjODcUTpJH-159" target="jHfvoRSbPwIjODcUTpJH-151">
          <mxGeometry relative="1" as="geometry" />
        </mxCell>
        <mxCell id="jHfvoRSbPwIjODcUTpJH-165" style="edgeStyle=orthogonalEdgeStyle;rounded=0;orthogonalLoop=1;jettySize=auto;html=1;entryX=0;entryY=0.5;entryDx=0;entryDy=0;" edge="1" parent="1" source="jHfvoRSbPwIjODcUTpJH-159" target="jHfvoRSbPwIjODcUTpJH-153">
          <mxGeometry relative="1" as="geometry" />
        </mxCell>
        <mxCell id="jHfvoRSbPwIjODcUTpJH-166" style="edgeStyle=orthogonalEdgeStyle;rounded=0;orthogonalLoop=1;jettySize=auto;html=1;entryX=0;entryY=0.5;entryDx=0;entryDy=0;" edge="1" parent="1" source="jHfvoRSbPwIjODcUTpJH-159" target="jHfvoRSbPwIjODcUTpJH-154">
          <mxGeometry relative="1" as="geometry" />
        </mxCell>
        <mxCell id="jHfvoRSbPwIjODcUTpJH-167" style="edgeStyle=orthogonalEdgeStyle;rounded=0;orthogonalLoop=1;jettySize=auto;html=1;entryX=0;entryY=0.5;entryDx=0;entryDy=0;" edge="1" parent="1" source="jHfvoRSbPwIjODcUTpJH-159" target="jHfvoRSbPwIjODcUTpJH-157">
          <mxGeometry relative="1" as="geometry" />
        </mxCell>
        <mxCell id="jHfvoRSbPwIjODcUTpJH-168" style="edgeStyle=orthogonalEdgeStyle;rounded=0;orthogonalLoop=1;jettySize=auto;html=1;entryX=0;entryY=0.5;entryDx=0;entryDy=0;" edge="1" parent="1" source="jHfvoRSbPwIjODcUTpJH-159" target="jHfvoRSbPwIjODcUTpJH-155">
          <mxGeometry relative="1" as="geometry" />
        </mxCell>
        <mxCell id="jHfvoRSbPwIjODcUTpJH-169" style="edgeStyle=orthogonalEdgeStyle;rounded=0;orthogonalLoop=1;jettySize=auto;html=1;entryX=0;entryY=0.5;entryDx=0;entryDy=0;" edge="1" parent="1" source="jHfvoRSbPwIjODcUTpJH-159" target="jHfvoRSbPwIjODcUTpJH-158">
          <mxGeometry relative="1" as="geometry" />
        </mxCell>
        <mxCell id="jHfvoRSbPwIjODcUTpJH-159" value="item" style="whiteSpace=wrap;html=1;verticalAlign=top;" vertex="1" parent="1">
          <mxGeometry x="1680" y="630" width="80" height="30" as="geometry" />
        </mxCell>
      </root>
    </mxGraphModel>
  </diagram>
</mxfile>
